<svg xmlns="http://www.w3.org/2000/svg" xmlns:xlink="http://www.w3.org/1999/xlink" width="529.133" height="124.72" viewBox="0 0 396.85 93.54"><defs><path id="a" d="M8.64-8.047c.422.781.922 1.375 1.61 1.828.64.5 1.406.828 2.281 1.047.875.234 1.781.375 2.75.375.64 0 1.328-.047 2.047-.187a6.546 6.546 0 0 0 2.063-.594c.64-.328 1.187-.734 1.593-1.281.422-.5.641-1.188.641-2.016 0-.86-.266-1.594-.813-2.14-.593-.563-1.328-1.016-2.25-1.376-.906-.375-1.953-.687-3.109-.968-1.14-.266-2.328-.594-3.515-.907-1.235-.328-2.422-.687-3.563-1.14a11.928 11.928 0 0 1-3.11-1.703c-.921-.688-1.656-1.594-2.202-2.641-.594-1.063-.876-2.297-.876-3.797 0-1.703.376-3.156 1.11-4.39.687-1.235 1.64-2.25 2.781-3.079 1.14-.812 2.469-1.406 3.938-1.828a16.327 16.327 0 0 1 4.39-.593c1.688 0 3.344.187 4.938.546 1.562.422 2.922 1.016 4.156 1.875a9.449 9.449 0 0 1 2.938 3.25c.687 1.328 1.046 2.985 1.046 4.86h-6.953c-.047-.969-.265-1.797-.593-2.438-.36-.64-.829-1.14-1.422-1.5a5.635 5.635 0 0 0-1.953-.781c-.782-.14-1.61-.234-2.47-.234-.609 0-1.155.047-1.75.187-.593.14-1.093.328-1.546.64-.5.329-.875.688-1.188 1.141-.328.47-.468 1.063-.468 1.75 0 .641.14 1.141.375 1.547.218.407.734.782 1.453 1.094.687.328 1.703.688 2.984 1.016 1.235.312 2.875.765 4.938 1.28.593.126 1.468.313 2.562.642 1.047.312 2.14.859 3.203 1.546 1.047.688 2 1.657 2.782 2.797.78 1.188 1.14 2.688 1.14 4.516 0 1.515-.265 2.89-.86 4.172a9.031 9.031 0 0 1-2.562 3.297c-1.14.953-2.562 1.687-4.25 2.187-1.703.5-3.672.781-5.906.781-1.781 0-3.516-.234-5.219-.687C8.094-.36 6.578-1.047 5.312-2.016c-1.328-.953-2.343-2.14-3.125-3.609-.765-1.469-1.14-3.203-1.093-5.219h6.953c0 1.11.187 2.016.594 2.797Zm0 0"/><path id="b" d="M8.781-23.64v3.203h.094c.86-1.235 1.875-2.157 3.11-2.844 1.187-.688 2.562-1 4.109-1 1.515 0 2.89.265 4.125.86 1.234.593 2.14 1.608 2.781 3.062.688-1.047 1.656-1.953 2.89-2.735 1.188-.781 2.61-1.187 4.25-1.187 1.235 0 2.422.14 3.47.453 1.062.328 1.968.781 2.75 1.469.78.687 1.374 1.547 1.78 2.609.407 1.094.641 2.422.641 3.922V0h-6.5v-13.406c0-.766-.031-1.547-.078-2.235-.047-.687-.234-1.328-.516-1.828a3.21 3.21 0 0 0-1.187-1.234c-.547-.328-1.281-.453-2.188-.453-.921 0-1.656.172-2.203.5-.593.36-1 .812-1.328 1.375a5.812 5.812 0 0 0-.64 1.922 12.777 12.777 0 0 0-.172 2.187V0h-6.5v-13.266c0-.687 0-1.421-.047-2.093-.047-.688-.14-1.282-.36-1.875-.234-.61-.64-1.063-1.14-1.422-.563-.328-1.328-.5-2.39-.5-.313 0-.688.047-1.188.172-.5.14-1 .422-1.453.78-.516.407-.922.97-1.235 1.642-.328.734-.515 1.703-.515 2.843V0H2.656v-23.64Zm0 0"/><path id="c" d="M8.688-16.375c.14-1.281.546-2.188 1.28-2.734.735-.563 1.735-.828 3.016-.828.594 0 1.141.046 1.657.093.5.094.906.219 1.328.453.36.235.672.547.906.953.234.422.328 1.016.328 1.704.031.687-.187 1.187-.594 1.5-.422.375-1.015.64-1.75.828-.734.187-1.546.312-2.515.406-.953.094-1.922.234-2.875.375-.969.14-1.922.36-2.89.594a8.502 8.502 0 0 0-2.548 1.187c-.781.5-1.375 1.188-1.843 2.063-.5.86-.72 2-.72 3.328 0 1.234.22 2.297.641 3.156.407.875.954 1.61 1.688 2.203.734.594 1.594 1 2.562 1.282.954.265 2.016.406 3.157.406 1.453 0 2.875-.235 4.296-.64 1.422-.407 2.61-1.188 3.657-2.235.047.406.093.765.187 1.14.047.407.14.782.266 1.141h6.594c-.328-.5-.5-1.234-.641-2.188-.14-.968-.188-2.015-.188-3.078v-12.296c0-1.422-.312-2.61-.953-3.47-.64-.874-1.468-1.515-2.468-2.015-1.016-.5-2.11-.828-3.344-1.015-1.235-.125-2.422-.22-3.61-.22-1.328 0-2.609.141-3.89.36a12.08 12.08 0 0 0-3.516 1.328c-1.062.594-1.875 1.422-2.562 2.422-.688 1.016-1.063 2.297-1.156 3.797Zm8.515 7.234c0 .36-.047.86-.094 1.454-.093.593-.328 1.187-.64 1.78-.328.595-.875 1.157-1.563 1.563-.687.407-1.687.64-2.969.64-.5 0-1-.046-1.515-.14a3.602 3.602 0 0 1-1.281-.5c-.36-.234-.641-.5-.86-.922-.234-.406-.328-.859-.328-1.453 0-.593.094-1.11.328-1.515.219-.407.5-.735.86-1a3.634 3.634 0 0 1 1.234-.594c.469-.14.922-.281 1.422-.375.5-.094 1.047-.172 1.562-.219.5-.047 1-.14 1.5-.234.47-.094.922-.235 1.329-.36.421-.14.734-.328 1.015-.562Zm0 0"/><path id="d" d="M8.64-23.64v4.39h.094a9.881 9.881 0 0 1 1.235-2.063 8.327 8.327 0 0 1 1.781-1.593c.688-.422 1.375-.782 2.156-1.016.781-.219 1.547-.36 2.375-.36.407 0 .922.095 1.422.22v6.046c-.328-.047-.687-.14-1.094-.187-.422-.047-.828-.047-1.25-.047-1.187 0-2.187.188-3.015.594-.813.422-1.453.922-1.969 1.61-.5.687-.86 1.5-1.094 2.421-.219.906-.312 1.922-.312 2.969V0h-6.5v-23.64Zm0 0"/><path id="e" d="M15.453-23.64v4.343h-4.75v11.703c0 1.094.188 1.828.547 2.203.36.36 1.094.547 2.203.547.36 0 .719 0 1.047-.047.313-.046.64-.093.953-.14V0c-.547.094-1.14.14-1.828.188-.688.046-1.328.046-1.969.046-1 0-1.953-.093-2.828-.234-.922-.14-1.687-.36-2.375-.781A4.521 4.521 0 0 1 4.797-2.47c-.406-.734-.594-1.687-.594-2.875v-13.953H.281v-4.344h3.922v-7.093h6.5v7.093Zm0 0"/><path id="g" d="M26.11-32.656v6.031H10.343v7.547h13.672v5.594H10.344V0H3.156v-32.656Zm0 0"/><path id="h" d="M16.781-18.11c-.781-.874-1.968-1.28-3.562-1.28-1.047 0-1.875.187-2.563.5-.687.374-1.234.828-1.64 1.328-.422.5-.735 1.046-.875 1.64a6.718 6.718 0 0 0-.313 1.563h10.563c-.328-1.641-.828-2.875-1.61-3.75ZM9.421-5.671c.954.969 2.376 1.422 4.204 1.422 1.328 0 2.422-.328 3.39-1.016.954-.64 1.5-1.312 1.735-2.046h5.719c-.922 2.828-2.328 4.843-4.203 6.078C18.39 0 16.094.594 13.406.594c-1.875 0-3.531-.313-5.031-.906-1.516-.61-2.75-1.422-3.797-2.516-1.062-1.11-1.828-2.438-2.39-3.938-.594-1.515-.86-3.203-.86-5.03 0-1.782.266-3.438.86-4.938.609-1.516 1.421-2.844 2.484-3.985C5.719-21.812 7-22.687 8.5-23.329c1.469-.64 3.11-.952 4.906-.952 2 0 3.75.36 5.25 1.14 1.516.782 2.75 1.828 3.703 3.157a12.284 12.284 0 0 1 2.063 4.484c.406 1.688.594 3.422.453 5.25H7.828c.078 2.11.625 3.625 1.594 4.578Zm0 0"/><path id="i" d="M2.656-27.297v-5.36h6.485v5.36Zm6.485 3.656V0H2.656v-23.64Zm0 0"/><path id="j" d="M15.922-6.125a5.466 5.466 0 0 0 1.734-1.469 6.355 6.355 0 0 0 1.047-2.11c.235-.765.328-1.546.328-2.421 0-.953-.093-1.922-.281-2.781a7.509 7.509 0 0 0-.906-2.297c-.422-.672-1.016-1.188-1.703-1.594-.688-.406-1.594-.594-2.657-.594-.906 0-1.687.188-2.328.547a4.529 4.529 0 0 0-1.64 1.469 6.324 6.324 0 0 0-.97 2.14 10.096 10.096 0 0 0-.312 2.563c0 .875.094 1.703.266 2.516.14.875.469 1.61.875 2.297.406.671.922 1.234 1.594 1.64.687.407 1.515.64 2.515.64.922 0 1.75-.187 2.438-.546Zm8.906 7.86c-.265 1.234-.812 2.343-1.687 3.39-.875 1.047-2.11 1.969-3.703 2.703-1.594.719-3.797 1.094-6.5 1.094-1.141 0-2.329-.14-3.516-.469a10.481 10.481 0 0 1-3.297-1.312c-1-.594-1.828-1.422-2.469-2.391-.687-.953-1.047-2.094-1.14-3.422h6.453c.312 1.234.906 2.063 1.781 2.516.86.5 1.922.734 3.063.734 1.828 0 3.156-.547 4.03-1.656.813-1.094 1.235-2.469 1.188-4.156v-3.11h-.093a6.488 6.488 0 0 1-2.97 2.75c-1.327.594-2.702.907-4.124.907-1.781 0-3.297-.313-4.578-.954a8.303 8.303 0 0 1-3.157-2.562C3.297-5.266 2.703-6.547 2.33-8c-.407-1.422-.595-2.969-.595-4.578 0-1.516.235-3.016.688-4.438a10.546 10.546 0 0 1 1.922-3.75c.875-1.047 1.922-1.922 3.203-2.562 1.234-.64 2.703-.953 4.344-.953 1.562 0 2.921.265 4.109.86 1.156.593 2.156 1.562 2.938 2.937h.093v-3.157h6.172v22.125c0 .97-.14 2.016-.375 3.25Zm0 0"/><path id="k" d="M8.969-32.656v12.297h.125c.828-1.36 1.875-2.375 3.156-3.016 1.281-.594 2.516-.906 3.75-.906 1.75 0 3.156.218 4.313.687 1.093.5 1.953 1.14 2.593 1.969.64.86 1.11 1.875 1.375 3.063a21.39 21.39 0 0 1 .375 4.015V0h-6.5v-13.36c0-1.968-.312-3.421-.922-4.39-.593-.953-1.687-1.406-3.234-1.406-1.781 0-3.063.5-3.844 1.547-.781 1.047-1.187 2.797-1.187 5.218V0h-6.5v-32.656Zm0 0"/><path id="l" d="M24.11-23.969a6.724 6.724 0 0 0-1.61-1.781c-.64-.5-1.375-.906-2.14-1.234a8.446 8.446 0 0 0-2.563-.407c-1.61 0-2.985.313-4.125.907-1.14.64-2.063 1.468-2.735 2.515-.687 1.063-1.203 2.297-1.515 3.61-.328 1.328-.5 2.75-.5 4.172 0 1.375.172 2.703.5 3.968a10.886 10.886 0 0 0 1.515 3.531c.672 1.047 1.594 1.876 2.735 2.47 1.14.64 2.515.952 4.125.952 2.187 0 3.922-.687 5.156-2 1.235-1.328 1.969-3.109 2.25-5.312h6.953c-.187 2.062-.64 3.89-1.422 5.531-.78 1.656-1.78 3.063-3.015 4.219a12.59 12.59 0 0 1-4.39 2.64 16.628 16.628 0 0 1-5.532.922c-2.516 0-4.766-.453-6.735-1.328-2-.875-3.703-2.062-5.078-3.562C4.625-5.672 3.563-7.5 2.828-9.563c-.719-2.046-1.094-4.25-1.094-6.624 0-2.422.375-4.72 1.094-6.813.735-2.063 1.797-3.89 3.156-5.453C7.36-30 9.063-31.234 11.063-32.11c1.968-.86 4.218-1.328 6.734-1.328 1.781 0 3.515.28 5.11.78 1.609.5 3.03 1.282 4.312 2.25 1.234 1 2.281 2.235 3.11 3.704.812 1.453 1.312 3.156 1.546 5.031h-6.953c-.14-.828-.406-1.61-.813-2.297Zm0 0"/><path id="m" d="M8.64-23.64v3.28h.141c.828-1.359 1.875-2.374 3.203-3.015 1.329-.594 2.657-.906 4.016-.906 1.75 0 3.156.218 4.313.687 1.093.5 1.953 1.14 2.593 1.969.64.86 1.11 1.875 1.375 3.063a21.39 21.39 0 0 1 .375 4.015V0h-6.5v-13.36c0-1.968-.312-3.421-.922-4.39-.593-.953-1.687-1.406-3.234-1.406-1.781 0-3.063.5-3.844 1.547-.781 1.047-1.187 2.797-1.187 5.218V0h-6.5v-23.64Zm0 0"/></defs><use xlink:href="#a" x="95.258" y="40.663" fill="#C4161D"/><use xlink:href="#b" x="124.481" y="40.663" fill="#C4161D"/><use xlink:href="#c" x="165.001" y="40.663" fill="#C4161D"/><use xlink:href="#d" x="190.794" y="40.663" fill="#C4161D"/><use xlink:href="#e" x="209.041" y="40.663" fill="#C4161D"/><use xlink:href="#f" x="224.682" y="40.663" fill="#C4161D"/><use xlink:href="#g" x="234.194" y="40.663" fill="#C4161D"/><use xlink:href="#d" x="259.942" y="40.663" fill="#C4161D"/><use xlink:href="#h" x="276.452" y="40.663" fill="#C4161D"/><use xlink:href="#i" x="302.016" y="40.663" fill="#C4161D"/><use xlink:href="#j" x="312.672" y="40.663" fill="#C4161D"/><use xlink:href="#k" x="339.7" y="40.663" fill="#C4161D"/><use xlink:href="#e" x="366.362" y="40.663" fill="#C4161D"/><use xlink:href="#l" x="95.258" y="83.311" fill="#C4161D"/><use xlink:href="#h" x="128.689" y="83.311" fill="#C4161D"/><use xlink:href="#m" x="154.025" y="83.311" fill="#C4161D"/><use xlink:href="#e" x="180.23" y="83.311" fill="#C4161D"/><use xlink:href="#d" x="196.785" y="83.311" fill="#C4161D"/><use xlink:href="#h" x="213.295" y="83.311" fill="#C4161D"/><path fill="#C4161D" d="M52.309 7.105c-32.91 18.25-4.141 29.418 15.59 35.73 6.867 2.145 12.437 4.458 16.855 6.88V7.082l-32.445.023"/><path fill="#C4161D" d="M8.426 7.082v77.07l35.824.024c43.309-24.719-22.7-37.364-24.055-56.98-.582-8.458 4.012-13.575 22.239-20.09L8.426 7.081"/></svg>