<?xml version="1.0" encoding="utf-8"?>
<svg xmlns="http://www.w3.org/2000/svg" width="512" height="512" viewBox="335 255 350 350">
<rect x="335" y="255" width="350" height="350" fill="#0A0A0A"/>
<path fill="#3B82F6" d="M552.951 307.029C556.181 298.139 561.272 291.152 569.286 285.969C579.402 279.369 591.742 277.098 603.546 279.664C615.207 282.243 624.863 288.738 631.237 298.887C637.78 309.497 639.848 322.269 636.985 334.402C634.27 345.696 627.179 355.449 617.272 361.515C606.7 367.862 594.039 369.747 582.077 366.754C571.709 364.068 562.72 357.6 556.88 348.622C555.308 346.233 554.195 343.609 552.697 341.092C547.29 357.432 532.39 367.403 515.527 368.34C506.625 368.954 497.391 367.824 488.533 368.682C481.144 369.398 475.663 373.903 477.03 381.737C477.513 384.505 479.463 385.465 481.603 386.86C499.721 388.766 515.751 383.69 533.026 393.847C544.615 400.661 549.812 408.023 553.434 420.706C554.73 415.333 557.103 410.279 560.411 405.851C567.24 396.762 578.198 390.63 589.442 389.184C601.103 387.703 612.874 390.926 622.153 398.141C631.403 405.286 637.37 415.868 638.697 427.48C640.012 438.755 637.237 450.243 630.108 459.178C622.809 468.499 612.032 474.451 600.255 475.664C587.442 476.956 576.561 473.635 566.687 465.506C559.408 458.908 556.18 453.029 553.413 443.753C550.99 451.456 548.095 457.607 542.257 463.288C528.698 476.479 513.821 475.962 496.239 475.591C491.518 475.492 482.176 475.808 479.319 479.827C469.752 493.281 486.302 501.134 491.665 511.563C495.989 519.017 497.541 526.176 497.971 534.739C499.535 565.921 475.408 590.432 444.324 590.943C413.781 591.446 389.248 568.493 388.557 537.761C388.287 525.773 393.073 512.446 401.25 503.751C406.199 498.41 414.925 494.473 413.972 486.445C413.988 477.844 408.805 474.488 403.044 469.155C383.358 450.931 382.434 417.572 402.761 399.417C408.913 393.923 417.918 390.386 417.39 380.59C416.76 368.899 408.665 367.579 401.15 361.25C393.234 353.913 388.34 340.64 388.292 329.956C388.022 316.006 392.858 303.735 402.592 293.807C419.535 276.528 439.567 278.807 461.388 278.885C473.076 278.961 484.765 278.914 496.453 278.743C508.76 278.563 520.123 277.68 531.423 283.137C542.432 288.454 548.831 295.668 552.951 307.029Z"/>
</svg>