<svg width="73" height="15" viewBox="0 0 73 15" fill="none" xmlns="http://www.w3.org/2000/svg">
<path d="M0.660511 12V3.27273H6.6179V4.9858H2.76989V6.77557H6.23864V8.4929H2.76989V12H0.660511ZM10.255 12.1236C9.56747 12.1236 8.97656 11.983 8.48224 11.7017C7.99077 11.4176 7.61151 11.0227 7.34446 10.517C7.08026 10.0085 6.94815 9.41903 6.94815 8.74858C6.94815 8.07528 7.08026 7.4858 7.34446 6.98011C7.61151 6.47159 7.99077 6.0767 8.48224 5.79545C8.97656 5.51136 9.56747 5.36932 10.255 5.36932C10.9425 5.36932 11.532 5.51136 12.0234 5.79545C12.5178 6.0767 12.897 6.47159 13.1612 6.98011C13.4283 7.4858 13.5618 8.07528 13.5618 8.74858C13.5618 9.41903 13.4283 10.0085 13.1612 10.517C12.897 11.0227 12.5178 11.4176 12.0234 11.7017C11.532 11.983 10.9425 12.1236 10.255 12.1236ZM10.2678 10.5511C10.5178 10.5511 10.7294 10.4744 10.9027 10.321C11.076 10.1676 11.2081 9.95455 11.299 9.68182C11.3928 9.40909 11.4396 9.09375 11.4396 8.7358C11.4396 8.37216 11.3928 8.05398 11.299 7.78125C11.2081 7.50852 11.076 7.29545 10.9027 7.14205C10.7294 6.98864 10.5178 6.91193 10.2678 6.91193C10.0092 6.91193 9.79048 6.98864 9.61151 7.14205C9.43537 7.29545 9.30043 7.50852 9.20668 7.78125C9.11577 8.05398 9.07031 8.37216 9.07031 8.7358C9.07031 9.09375 9.11577 9.40909 9.20668 9.68182C9.30043 9.95455 9.43537 10.1676 9.61151 10.321C9.79048 10.4744 10.0092 10.5511 10.2678 10.5511ZM14.6293 12V5.45455H16.6534V6.64773H16.7216C16.8409 6.21591 17.0355 5.89489 17.3054 5.68466C17.5753 5.47159 17.8892 5.36506 18.2472 5.36506C18.3438 5.36506 18.4432 5.37216 18.5455 5.38636C18.6477 5.39773 18.7429 5.41619 18.831 5.44176V7.25284C18.7315 7.21875 18.6009 7.19176 18.4389 7.17188C18.2798 7.15199 18.1378 7.14205 18.0128 7.14205C17.7656 7.14205 17.5426 7.19744 17.3438 7.30824C17.1477 7.41619 16.9929 7.56818 16.8793 7.7642C16.7685 7.95739 16.7131 8.18466 16.7131 8.44602V12H14.6293ZM22.3913 14.5909C21.7692 14.5909 21.2365 14.5043 20.7933 14.331C20.3501 14.1577 20.0021 13.9205 19.7493 13.6193C19.4964 13.3182 19.3445 12.9773 19.2933 12.5966L21.2663 12.4858C21.3033 12.6193 21.3714 12.7358 21.4709 12.8352C21.5732 12.9347 21.7053 13.0114 21.8672 13.0653C22.032 13.1193 22.2251 13.1463 22.4467 13.1463C22.7962 13.1463 23.0845 13.0611 23.3118 12.8906C23.5419 12.723 23.657 12.429 23.657 12.0085V10.858H23.5845C23.5021 11.0597 23.3771 11.2401 23.2095 11.3991C23.0419 11.5582 22.8331 11.6832 22.5831 11.7741C22.3359 11.8651 22.0518 11.9105 21.7308 11.9105C21.2536 11.9105 20.8161 11.7997 20.4183 11.5781C20.0234 11.3537 19.7067 11.0071 19.468 10.5384C19.2322 10.0668 19.1143 9.46023 19.1143 8.71875C19.1143 7.95455 19.2365 7.32528 19.4808 6.83097C19.7251 6.33381 20.0447 5.96591 20.4396 5.72727C20.8374 5.48864 21.2649 5.36932 21.7223 5.36932C22.0661 5.36932 22.3601 5.42898 22.6044 5.5483C22.8516 5.66477 23.0547 5.81534 23.2138 6C23.3729 6.18466 23.4936 6.37642 23.576 6.57528H23.6357V5.45455H25.7109V12.0256C25.7109 12.5795 25.5717 13.0469 25.2933 13.4276C25.0149 13.8082 24.6257 14.0966 24.1257 14.2926C23.6257 14.4915 23.0476 14.5909 22.3913 14.5909ZM22.4553 10.3935C22.7081 10.3935 22.924 10.3267 23.103 10.1932C23.282 10.0597 23.4197 9.8679 23.5163 9.6179C23.6129 9.3679 23.6612 9.06818 23.6612 8.71875C23.6612 8.36364 23.6129 8.05824 23.5163 7.80256C23.4226 7.54403 23.2848 7.34517 23.103 7.20597C22.924 7.06676 22.7081 6.99716 22.4553 6.99716C22.1967 6.99716 21.978 7.06818 21.799 7.21023C21.62 7.35227 21.4837 7.55256 21.3899 7.81108C21.299 8.06676 21.2536 8.36932 21.2536 8.71875C21.2536 9.06818 21.3004 9.3679 21.3942 9.6179C21.4879 9.8679 21.6229 10.0597 21.799 10.1932C21.978 10.3267 22.1967 10.3935 22.4553 10.3935ZM30.0991 12.1236C29.4144 12.1236 28.8235 11.9886 28.3263 11.7188C27.832 11.446 27.4513 11.0582 27.1843 10.5554C26.9201 10.0497 26.788 9.44886 26.788 8.75284C26.788 8.0767 26.9215 7.4858 27.1886 6.98011C27.4556 6.47159 27.832 6.0767 28.3178 5.79545C28.8036 5.51136 29.3761 5.36932 30.0352 5.36932C30.5011 5.36932 30.9272 5.44176 31.3136 5.58665C31.6999 5.73153 32.0337 5.94602 32.315 6.23011C32.5962 6.5142 32.815 6.86506 32.9712 7.28267C33.1275 7.69744 33.2056 8.1733 33.2056 8.71023V9.23011H27.5167V8.01989H31.2667C31.2638 7.7983 31.2113 7.60085 31.109 7.42756C31.0067 7.25426 30.8661 7.11932 30.6871 7.02273C30.511 6.9233 30.3079 6.87358 30.0778 6.87358C29.8448 6.87358 29.636 6.92614 29.4513 7.03125C29.2667 7.13352 29.1204 7.27415 29.0124 7.45312C28.9045 7.62926 28.8477 7.82955 28.842 8.05398V9.28551C28.842 9.55256 28.8945 9.78693 28.9996 9.98864C29.1048 10.1875 29.2539 10.3423 29.4471 10.4531C29.6403 10.5639 29.8704 10.6193 30.1374 10.6193C30.3221 10.6193 30.4897 10.5937 30.6403 10.5426C30.7908 10.4915 30.9201 10.4162 31.0281 10.3168C31.136 10.2173 31.217 10.0952 31.271 9.95028L33.1843 10.0057C33.1048 10.4347 32.93 10.8082 32.6602 11.1264C32.3931 11.4418 32.0423 11.6875 31.6076 11.8636C31.1729 12.0369 30.6701 12.1236 30.0991 12.1236Z" fill="white"/>
<path d="M34.5625 12V3.27273H36.9318V6.68182H40.0682V3.27273H42.4375V12H40.0682V8.59091H36.9318V12H34.5625ZM46.75 12.1193C46.0398 12.1193 45.4318 11.9787 44.9261 11.6974C44.4205 11.4134 44.0327 11.0185 43.7628 10.5128C43.4929 10.0043 43.358 9.41477 43.358 8.74432C43.358 8.07386 43.4929 7.4858 43.7628 6.98011C44.0327 6.47159 44.4205 6.0767 44.9261 5.79545C45.4318 5.51136 46.0398 5.36932 46.75 5.36932C47.4602 5.36932 48.0682 5.51136 48.5739 5.79545C49.0795 6.0767 49.4673 6.47159 49.7372 6.98011C50.0071 7.4858 50.142 8.07386 50.142 8.74432C50.142 9.41477 50.0071 10.0043 49.7372 10.5128C49.4673 11.0185 49.0795 11.4134 48.5739 11.6974C48.0682 11.9787 47.4602 12.1193 46.75 12.1193ZM46.767 10.3807C46.9659 10.3807 47.1378 10.3139 47.2827 10.1804C47.4276 10.0469 47.5398 9.85653 47.6193 9.60938C47.6989 9.36222 47.7386 9.06818 47.7386 8.72727C47.7386 8.38352 47.6989 8.08949 47.6193 7.84517C47.5398 7.59801 47.4276 7.40767 47.2827 7.27415C47.1378 7.14062 46.9659 7.07386 46.767 7.07386C46.5568 7.07386 46.3764 7.14062 46.2259 7.27415C46.0753 7.40767 45.9602 7.59801 45.8807 7.84517C45.8011 8.08949 45.7614 8.38352 45.7614 8.72727C45.7614 9.06818 45.8011 9.36222 45.8807 9.60938C45.9602 9.85653 46.0753 10.0469 46.2259 10.1804C46.3764 10.3139 46.5568 10.3807 46.767 10.3807ZM55.3409 9.13636V5.45455H57.6932V12H55.4602V10.7557H55.392C55.25 11.1733 55.0014 11.5 54.6463 11.7358C54.2912 11.9687 53.8693 12.0852 53.3807 12.0852C52.9233 12.0852 52.5227 11.9801 52.179 11.7699C51.8381 11.5597 51.5724 11.2699 51.3821 10.9006C51.1946 10.5312 51.0994 10.108 51.0966 9.63068V5.45455H53.4489V9.13636C53.4517 9.46023 53.5341 9.71449 53.696 9.89915C53.8608 10.0838 54.0909 10.1761 54.3864 10.1761C54.5824 10.1761 54.7514 10.1349 54.8935 10.0526C55.0384 9.96733 55.1491 9.84801 55.2259 9.6946C55.3054 9.53835 55.3438 9.35227 55.3409 9.13636ZM64.8725 7.58523H62.7077C62.6964 7.4517 62.6495 7.33665 62.5671 7.24006C62.4847 7.14347 62.3782 7.0696 62.2475 7.01847C62.1197 6.96449 61.9776 6.9375 61.8214 6.9375C61.6197 6.9375 61.4464 6.97443 61.3015 7.0483C61.1566 7.12216 61.0856 7.22727 61.0884 7.36364C61.0856 7.46023 61.1268 7.54972 61.212 7.6321C61.3001 7.71449 61.4691 7.77841 61.7191 7.82386L63.0487 8.0625C63.7191 8.18466 64.2177 8.39062 64.5444 8.6804C64.8739 8.96733 65.0401 9.35227 65.043 9.83523C65.0401 10.3011 64.9009 10.706 64.6254 11.0497C64.3526 11.3906 63.979 11.6548 63.5046 11.8423C63.033 12.027 62.4947 12.1193 61.8896 12.1193C60.8896 12.1193 60.1069 11.9148 59.5415 11.5057C58.979 11.0966 58.6651 10.5568 58.5998 9.88636H60.935C60.9663 10.0937 61.0685 10.2543 61.2418 10.3679C61.418 10.4787 61.6396 10.5341 61.9066 10.5341C62.1225 10.5341 62.3001 10.4972 62.4393 10.4233C62.5813 10.3494 62.6538 10.2443 62.6566 10.108C62.6538 9.98295 62.5913 9.88352 62.4691 9.80966C62.3498 9.7358 62.1623 9.67614 61.9066 9.63068L60.7475 9.42614C60.0799 9.30966 59.5799 9.08807 59.2475 8.76136C58.9151 8.43466 58.7504 8.0142 58.7532 7.5C58.7504 7.04545 58.8697 6.66051 59.1112 6.34517C59.3555 6.02699 59.7035 5.78551 60.1552 5.62074C60.6097 5.45312 61.1481 5.36932 61.7702 5.36932C62.7163 5.36932 63.462 5.56534 64.0075 5.95739C64.5558 6.34943 64.8441 6.89205 64.8725 7.58523ZM69.0806 12.1193C68.3817 12.1193 67.7795 11.9858 67.2738 11.7188C66.771 11.4489 66.3832 11.0625 66.1104 10.5597C65.8406 10.054 65.7056 9.44886 65.7056 8.74432C65.7056 8.06818 65.842 7.47727 66.1147 6.97159C66.3874 6.46591 66.7724 6.07244 67.2695 5.79119C67.7667 5.50994 68.3533 5.36932 69.0295 5.36932C69.5238 5.36932 69.9712 5.44602 70.3718 5.59943C70.7724 5.75284 71.1147 5.97585 71.3988 6.26847C71.6829 6.55824 71.9016 6.91051 72.055 7.32528C72.2085 7.74006 72.2852 8.20739 72.2852 8.72727V9.27273H66.4386V7.97727H70.1204C70.1175 7.78977 70.0692 7.625 69.9755 7.48295C69.8846 7.33807 69.761 7.22585 69.6048 7.14631C69.4513 7.06392 69.2766 7.02273 69.0806 7.02273C68.8903 7.02273 68.7156 7.06392 68.5565 7.14631C68.3974 7.22585 68.2695 7.33665 68.1729 7.47869C68.0792 7.62074 68.0295 7.78693 68.0238 7.97727V9.375C68.0238 9.58523 68.0678 9.77273 68.1559 9.9375C68.244 10.1023 68.3704 10.2315 68.5352 10.3253C68.6999 10.419 68.8988 10.4659 69.1317 10.4659C69.2937 10.4659 69.4414 10.4432 69.5749 10.3977C69.7113 10.3523 69.8278 10.2869 69.9244 10.2017C70.021 10.1136 70.092 10.0085 70.1374 9.88636H72.2852C72.2113 10.3409 72.0366 10.7358 71.761 11.071C71.4854 11.4034 71.1204 11.6619 70.6658 11.8466C70.2141 12.0284 69.6857 12.1193 69.0806 12.1193Z" fill="#B8916A"/>
</svg>
