<?xml version="1.0" encoding="utf-8" ?><svg xmlns="http://www.w3.org/2000/svg" xmlns:xlink="http://www.w3.org/1999/xlink" width="1024" height="1024" viewBox="0 0 1024 1024"><path fill="#0A0A0A" d="M0 0L1024 0L1024 1024L0 1024L0 0Z"/><path fill="#3B82F6" d="M552.951 307.029C556.181 298.139 561.272 291.152 569.286 285.969C579.402 279.369 591.742 277.098 603.546 279.664C615.207 282.243 624.863 288.738 631.237 298.887C637.78 309.497 639.848 322.269 636.985 334.402C634.27 345.696 627.179 355.449 617.272 361.515C606.7 367.862 594.039 369.747 582.077 366.754C571.709 364.068 562.72 357.6 556.88 348.622C555.308 346.233 554.195 343.609 552.697 341.092C547.29 357.432 532.39 367.403 515.527 368.34C506.625 368.954 497.391 367.824 488.533 368.682C481.144 369.398 475.663 373.903 477.03 381.737C477.513 384.505 479.463 385.465 481.603 386.86C499.721 388.766 515.751 383.69 533.026 393.847C544.615 400.661 549.812 408.023 553.434 420.706C554.73 415.333 557.103 410.279 560.411 405.851C567.24 396.762 578.198 390.63 589.442 389.184C601.103 387.703 612.874 390.926 622.153 398.141C631.403 405.286 637.37 415.868 638.697 427.48C640.012 438.755 637.237 450.243 630.108 459.178C622.809 468.499 612.032 474.451 600.255 475.664C587.442 476.956 576.561 473.635 566.687 465.506C559.408 458.908 556.18 453.029 553.413 443.753C550.99 451.456 548.095 457.607 542.257 463.288C528.698 476.479 513.821 475.962 496.239 475.591C491.518 475.492 482.176 475.808 479.319 479.827C469.752 493.281 486.302 501.134 491.665 511.563C495.989 519.017 497.541 526.176 497.971 534.739C499.535 565.921 475.408 590.432 444.324 590.943C413.781 591.446 389.248 568.493 388.557 537.761C388.287 525.773 393.073 512.446 401.25 503.751C406.199 498.41 414.925 494.473 413.972 486.445C413.988 477.844 408.805 474.488 403.044 469.155C383.358 450.931 382.434 417.572 402.761 399.417C408.913 393.923 417.918 390.386 417.39 380.59C416.76 368.899 408.665 367.579 401.15 361.25C393.234 353.913 388.34 340.64 388.292 329.956C388.022 316.006 392.858 303.735 402.592 293.807C419.535 276.528 439.567 278.807 461.388 278.885C473.076 278.961 484.765 278.914 496.453 278.743C508.76 278.563 520.123 277.68 531.423 283.137C542.432 288.454 548.831 295.668 552.951 307.029Z"/><path fill="white" d="M391.453 660.626C403.81 659.604 409.039 661.707 417.654 670.392L417.738 661.343C420.557 661.186 424.144 661.262 427.017 661.25L427.066 700.529C427.072 708.081 427.23 715.403 426.744 722.938C425.336 745.846 398.326 749.454 381.984 740.034C378.601 738.083 370.696 729.048 373.457 725.119L375.875 724.997L382.261 725.022C383.251 727.074 384.078 729.125 385.688 730.766C392.414 737.671 406.346 739.136 413.381 731.971C417.609 727.665 417.734 722.107 417.599 716.49C417.528 713.565 417.579 710.594 417.562 707.672C409.713 718.997 394.899 721.061 383.168 714.782C365.543 705.347 364.766 672.626 383.254 663.582C386.167 662.157 388.332 661.467 391.453 660.626Z"/><path fill="#0A0A0A" d="M393.761 669.578C402.402 668.851 413.002 670.292 415.951 679.502C420.211 692.806 417.323 703.787 403.927 708.472L403.347 708.562C397.789 709.461 392.611 709.1 387.806 705.874C383.683 703.047 380.876 698.676 380.022 693.751C378.336 682.639 382.234 672.776 393.761 669.578Z"/><path fill="white" d="M291.099 660.791C306.67 657.398 322.053 667.238 325.5 682.798C328.947 698.357 319.159 713.773 303.612 717.274C287.989 720.791 272.481 710.945 269.017 695.31C265.554 679.675 275.452 664.201 291.099 660.791Z"/><path fill="#0A0A0A" d="M296.089 668.668C314.064 668.737 320.251 686.658 312.557 701.293C309.901 706.346 303.951 708.383 298.62 709.476C289.217 709.227 280.434 704.289 278.937 694.507C276.775 680.378 281.507 670.735 296.089 668.668Z"/><path fill="white" d="M595.464 660.708C611.161 657.754 626.267 668.13 629.144 683.842C632.021 699.554 621.571 714.608 605.845 717.408C590.228 720.188 575.3 709.826 572.443 694.223C569.586 678.62 579.875 663.641 595.464 660.708Z"/><path fill="#0A0A0A" d="M600.037 668.677C605.704 668.901 613.683 671.347 616.218 676.617C623.575 691.909 618.93 706.986 601.425 709.307C576.496 709.027 574.763 672.31 600.037 668.677Z"/><path fill="white" d="M777.015 660.632C790.537 659.313 803.743 662.813 807.845 677.648C809.348 683.086 809.057 687.856 808.998 693.424C794.056 693.656 778.958 693.221 763.928 693.475C765.083 697.822 766.355 701.987 770.009 704.891C778.953 711.999 789.228 710.979 796.456 702.712L798.222 699.366L808.27 699.441C804.819 707.937 800.397 714.186 790.872 716.6C782.963 718.583 774.246 718.136 767.154 713.997C749.791 703.866 749.625 671.966 768.68 663.374C771.728 661.999 773.799 661.407 777.015 660.632Z"/><path fill="#0A0A0A" d="M778.39 669.083C791.674 667.89 797.095 672.728 799.195 685.499C794.714 685.534 790.232 685.543 785.75 685.528C778.582 685.518 771.081 685.638 763.949 685.485C766.385 676.407 768.752 671.55 778.39 669.083Z"/><path fill="white" d="M461.655 660.601C462.973 660.514 464.292 660.454 465.611 660.421C472.76 660.275 480.776 662.299 485.867 667.505C493.135 674.936 492.631 683.787 492.523 693.17C477.734 693.096 462.945 693.101 448.156 693.186C450.736 704.292 457.477 710.685 469.965 709.171C474.692 708.598 478.26 705.564 480.964 701.726C482.559 697.491 487.898 699.202 492.015 699.418C488.895 707.709 484.359 713.944 475.081 716.419C446.51 724.041 429.985 696.278 442.854 672.381C446.456 665.694 454.295 662.103 461.655 660.601Z"/><path fill="#0A0A0A" d="M462.415 669.116C476.232 668.051 480.98 672.977 483.447 685.768L469.875 685.581L448.259 685.527C450.333 676.298 452.588 671.43 462.415 669.116Z"/><path fill="white" d="M505.896 646.5L515.806 646.446L515.68 677.066L550.995 677.077L550.988 646.499L561.02 646.515C560.737 668.598 561.859 695.16 560.895 716.556L551 716.54L550.963 685.046L515.609 685.08L515.774 716.579L505.96 716.607L505.896 646.5Z"/><path fill="white" d="M639.559 661.112L649.488 661.13C649.473 672.513 649.215 683.956 649.67 695.33C650.222 709.136 667.646 713.733 676.703 705.159C683.104 699.1 680.695 686.717 681.142 678.673C681.313 672.912 681.167 666.879 681.206 661.135L690.81 661.127L690.82 675.375L690.884 716.497L681.296 716.493L681.405 709.39C676.471 714.559 671.297 717.332 664.087 717.589C648.26 718.153 639.714 708.062 639.545 692.811C639.428 682.224 639.509 671.66 639.559 661.112Z"/><path fill="white" d="M718.932 660.613C727.49 660.126 735.478 660.8 741.504 668.067C743.528 670.506 744.879 674.522 744.44 677.701C742.827 678.409 737.623 678.258 735.613 678.281C734.599 675.156 733.963 672.901 731.324 670.653C727.155 667.102 717.566 667.593 714.467 672.544C713.48 674.106 713.224 676.022 713.766 677.788C716.602 686.805 743.297 684.378 745.472 698.094C747.392 710.195 739.449 715.158 729.044 717.401C715.665 717.856 705.463 714.154 702.921 699.729C705.897 699.681 709.275 699.869 712.279 699.975C714.557 706.894 721.435 711.197 727.86 709.322C742.35 705.095 735.96 694.661 724.154 692.897C711.922 691.071 698.772 682.671 705.7 668.959C708.13 664.149 714.082 661.965 718.932 660.613Z"/><path fill="white" d="M221.92 646.483C235.586 646.404 249.253 646.394 262.919 646.454L262.852 654.298L231.952 654.385C231.949 662.093 231.882 669.801 231.753 677.509L256.846 677.636L256.761 685.094L231.923 685.188L231.906 716.72C228.609 716.767 225.228 716.731 221.923 716.734L221.92 646.483Z"/><path fill="white" d="M359.863 660.61C361.235 660.504 361.673 660.307 362.862 660.949C363.784 662.465 363.325 666.99 363.28 669.102C358.37 669.822 354.421 670.473 350.721 674.258C348.866 676.174 347.561 678.553 346.941 681.147C345.812 685.682 346.388 710.047 346.403 716.561C343.147 716.546 339.021 717.742 336.597 715.524L336.498 713.125L336.502 661.1L346.332 661.09L346.457 670.048C350.68 664.385 353.351 662.488 359.863 660.61Z"/></svg>